<svg xmlns="http://www.w3.org/2000/svg" xmlns:xlink="http://www.w3.org/1999/xlink" contentStyleType="text/css" data-diagram-type="SEQUENCE" height="792px" preserveAspectRatio="none" style="width:1309px;height:792px;background:#FFFFFF;" version="1.1" viewBox="0 0 1309 792" width="1309px" zoomAndPan="magnify"><title>Base flow</title><defs/><g><text fill="#000000" font-family="sans-serif" font-size="14" font-weight="bold" lengthAdjust="spacing" textLength="76.2617" x="616.2131" y="27.9951">Base flow</text><g><title>User</title><rect fill="transparent" height="683.7891" width="8" x="23.9551" y="73.5938"/><line style="stroke:#181818;stroke-width:0.5;stroke-dasharray:5.0,5.0;" x1="27" x2="27" y1="73.5938" y2="757.3828"/></g><g><title>InceptionVault_S</title><rect fill="transparent" height="683.7891" width="8" x="226.9209" y="73.5938"/><line style="stroke:#181818;stroke-width:0.5;stroke-dasharray:5.0,5.0;" x1="230.2651" x2="230.2651" y1="73.5938" y2="757.3828"/></g><g><title>iToken</title><rect fill="transparent" height="683.7891" width="8" x="332.877" y="73.5938"/><line style="stroke:#181818;stroke-width:0.5;stroke-dasharray:5.0,5.0;" x1="336.5767" x2="336.5767" y1="73.5938" y2="757.3828"/></g><g><title>IOperator</title><rect fill="transparent" height="683.7891" width="8" x="413.5742" y="73.5938"/><line style="stroke:#181818;stroke-width:0.5;stroke-dasharray:5.0,5.0;" x1="417.1772" x2="417.1772" y1="73.5938" y2="757.3828"/></g><g><title>AdapterHandler</title><rect fill="transparent" height="683.7891" width="8" x="759.4004" y="73.5938"/><line style="stroke:#181818;stroke-width:0.5;stroke-dasharray:5.0,5.0;" x1="762.9438" x2="762.9438" y1="73.5938" y2="757.3828"/></g><g><title>IIBaseAdapter</title><rect fill="transparent" height="683.7891" width="8" x="887.9253" y="73.5938"/><line style="stroke:#181818;stroke-width:0.5;stroke-dasharray:5.0,5.0;" x1="891.8569" x2="891.8569" y1="73.5938" y2="757.3828"/></g><g><title>WithdrawalQueue</title><rect fill="transparent" height="683.7891" width="8" x="1023.6074" y="73.5938"/><line style="stroke:#181818;stroke-width:0.5;stroke-dasharray:5.0,5.0;" x1="1026.9937" x2="1026.9937" y1="73.5938" y2="757.3828"/></g><rect fill="#E2E2F0" height="30.2969" rx="2.5" ry="2.5" style="stroke:#181818;stroke-width:0.5;" width="45.9102" x="5" y="42.2969"/><text fill="#000000" font-family="sans-serif" font-size="14" lengthAdjust="spacing" textLength="31.9102" x="12" y="62.292">User</text><rect fill="#E2E2F0" height="30.2969" rx="2.5" ry="2.5" style="stroke:#181818;stroke-width:0.5;" width="45.9102" x="5" y="756.3828"/><text fill="#000000" font-family="sans-serif" font-size="14" lengthAdjust="spacing" textLength="31.9102" x="12" y="776.3779">User</text><rect fill="#E2E2F0" height="30.2969" rx="2.5" ry="2.5" style="stroke:#181818;stroke-width:0.5;" width="131.3115" x="165.2651" y="42.2969"/><text fill="#000000" font-family="sans-serif" font-size="14" lengthAdjust="spacing" textLength="117.3115" x="172.2651" y="62.292">InceptionVault_S</text><rect fill="#E2E2F0" height="30.2969" rx="2.5" ry="2.5" style="stroke:#181818;stroke-width:0.5;" width="131.3115" x="165.2651" y="756.3828"/><text fill="#000000" font-family="sans-serif" font-size="14" lengthAdjust="spacing" textLength="117.3115" x="172.2651" y="776.3779">InceptionVault_S</text><rect fill="#E2E2F0" height="30.2969" rx="2.5" ry="2.5" style="stroke:#181818;stroke-width:0.5;" width="60.6006" x="306.5767" y="42.2969"/><text fill="#000000" font-family="sans-serif" font-size="14" lengthAdjust="spacing" textLength="46.6006" x="313.5767" y="62.292">iToken</text><rect fill="#E2E2F0" height="30.2969" rx="2.5" ry="2.5" style="stroke:#181818;stroke-width:0.5;" width="60.6006" x="306.5767" y="756.3828"/><text fill="#000000" font-family="sans-serif" font-size="14" lengthAdjust="spacing" textLength="46.6006" x="313.5767" y="776.3779">iToken</text><rect fill="#E2E2F0" height="30.2969" rx="2.5" ry="2.5" style="stroke:#181818;stroke-width:0.5;" width="80.7939" x="377.1772" y="42.2969"/><text fill="#000000" font-family="sans-serif" font-size="14" lengthAdjust="spacing" textLength="66.7939" x="384.1772" y="62.292">IOperator</text><rect fill="#E2E2F0" height="30.2969" rx="2.5" ry="2.5" style="stroke:#181818;stroke-width:0.5;" width="80.7939" x="377.1772" y="756.3828"/><text fill="#000000" font-family="sans-serif" font-size="14" lengthAdjust="spacing" textLength="66.7939" x="384.1772" y="776.3779">IOperator</text><rect fill="#E2E2F0" height="30.2969" rx="2.5" ry="2.5" style="stroke:#181818;stroke-width:0.5;" width="124.9131" x="700.9438" y="42.2969"/><text fill="#000000" font-family="sans-serif" font-size="14" lengthAdjust="spacing" textLength="110.9131" x="707.9438" y="62.292">AdapterHandler</text><rect fill="#E2E2F0" height="30.2969" rx="2.5" ry="2.5" style="stroke:#181818;stroke-width:0.5;" width="124.9131" x="700.9438" y="756.3828"/><text fill="#000000" font-family="sans-serif" font-size="14" lengthAdjust="spacing" textLength="110.9131" x="707.9438" y="776.3779">AdapterHandler</text><rect fill="#E2E2F0" height="30.2969" rx="2.5" ry="2.5" style="stroke:#181818;stroke-width:0.5;" width="112.1367" x="835.8569" y="42.2969"/><text fill="#000000" font-family="sans-serif" font-size="14" lengthAdjust="spacing" textLength="98.1367" x="842.8569" y="62.292">IIBaseAdapter</text><rect fill="#E2E2F0" height="30.2969" rx="2.5" ry="2.5" style="stroke:#181818;stroke-width:0.5;" width="112.1367" x="835.8569" y="756.3828"/><text fill="#000000" font-family="sans-serif" font-size="14" lengthAdjust="spacing" textLength="98.1367" x="842.8569" y="776.3779">IIBaseAdapter</text><rect fill="#E2E2F0" height="30.2969" rx="2.5" ry="2.5" style="stroke:#181818;stroke-width:0.5;" width="139.2275" x="957.9937" y="42.2969"/><text fill="#000000" font-family="sans-serif" font-size="14" lengthAdjust="spacing" textLength="125.2275" x="964.9937" y="62.292">WithdrawalQueue</text><rect fill="#E2E2F0" height="30.2969" rx="2.5" ry="2.5" style="stroke:#181818;stroke-width:0.5;" width="139.2275" x="957.9937" y="756.3828"/><text fill="#000000" font-family="sans-serif" font-size="14" lengthAdjust="spacing" textLength="125.2275" x="964.9937" y="776.3779">WithdrawalQueue</text><polygon fill="#181818" points="218.9209,100.7266,228.9209,104.7266,218.9209,108.7266,222.9209,104.7266" style="stroke:#181818;stroke-width:1;"/><line style="stroke:#181818;stroke-width:1;" x1="27.9551" x2="224.9209" y1="104.7266" y2="104.7266"/><text fill="#000000" font-family="sans-serif" font-size="13" lengthAdjust="spacing" textLength="178.9658" x="34.9551" y="99.6606">: deposit(): to deposit asset</text><polygon fill="#181818" points="324.877,129.8594,334.877,133.8594,324.877,137.8594,328.877,133.8594" style="stroke:#181818;stroke-width:1;"/><line style="stroke:#181818;stroke-width:1;" x1="230.9209" x2="330.877" y1="133.8594" y2="133.8594"/><text fill="#000000" font-family="sans-serif" font-size="13" lengthAdjust="spacing" textLength="44.1353" x="237.9209" y="128.7935">mint():</text><polygon fill="#181818" points="38.9551,158.9922,28.9551,162.9922,38.9551,166.9922,34.9551,162.9922" style="stroke:#181818;stroke-width:1;"/><line style="stroke:#181818;stroke-width:1;" x1="32.9551" x2="229.9209" y1="162.9922" y2="162.9922"/><text fill="#000000" font-family="sans-serif" font-size="13" lengthAdjust="spacing" textLength="98.5664" x="44.9551" y="157.9263">transfer shares</text><polygon fill="#181818" points="751.4004,188.125,761.4004,192.125,751.4004,196.125,755.4004,192.125" style="stroke:#181818;stroke-width:1;"/><line style="stroke:#181818;stroke-width:1;" x1="417.5742" x2="757.4004" y1="192.125" y2="192.125"/><text fill="#000000" font-family="sans-serif" font-size="13" lengthAdjust="spacing" textLength="257.48" x="424.5742" y="187.0591">delegate(): delegates assets to adapter</text><polygon fill="#181818" points="879.9253,217.2578,889.9253,221.2578,879.9253,225.2578,883.9253,221.2578" style="stroke:#181818;stroke-width:1;"/><line style="stroke:#181818;stroke-width:1;" x1="763.4004" x2="885.9253" y1="221.2578" y2="221.2578"/><text fill="#000000" font-family="sans-serif" font-size="13" lengthAdjust="spacing" textLength="67.3169" x="770.4004" y="216.1919">delegate()</text><polygon fill="#181818" points="218.9209,246.3906,228.9209,250.3906,218.9209,254.3906,222.9209,250.3906" style="stroke:#181818;stroke-width:1;"/><line style="stroke:#181818;stroke-width:1;" x1="27.9551" x2="224.9209" y1="250.3906" y2="250.3906"/><text fill="#000000" font-family="sans-serif" font-size="13" lengthAdjust="spacing" textLength="113.0137" x="34.9551" y="245.3247">withdraw(shares)</text><polygon fill="#181818" points="324.877,275.5234,334.877,279.5234,324.877,283.5234,328.877,279.5234" style="stroke:#181818;stroke-width:1;"/><line style="stroke:#181818;stroke-width:1;" x1="230.9209" x2="330.877" y1="279.5234" y2="279.5234"/><text fill="#000000" font-family="sans-serif" font-size="13" lengthAdjust="spacing" textLength="40.2188" x="237.9209" y="274.4575">burn()</text><polygon fill="#181818" points="1015.6074,304.6563,1025.6074,308.6563,1015.6074,312.6563,1019.6074,308.6563" style="stroke:#181818;stroke-width:1;"/><line style="stroke:#181818;stroke-width:1;" x1="230.9209" x2="1021.6074" y1="308.6563" y2="308.6563"/><text fill="#000000" font-family="sans-serif" font-size="13" lengthAdjust="spacing" textLength="59.8457" x="237.9209" y="303.5903">request()</text><line style="stroke:#181818;stroke-width:1;" x1="1027.6074" x2="1069.6074" y1="337.7891" y2="337.7891"/><line style="stroke:#181818;stroke-width:1;" x1="1069.6074" x2="1069.6074" y1="337.7891" y2="350.7891"/><line style="stroke:#181818;stroke-width:1;" x1="1028.6074" x2="1069.6074" y1="350.7891" y2="350.7891"/><polygon fill="#181818" points="1038.6074,346.7891,1028.6074,350.7891,1038.6074,354.7891,1034.6074,350.7891" style="stroke:#181818;stroke-width:1;"/><text fill="#000000" font-family="sans-serif" font-size="13" lengthAdjust="spacing" textLength="195.603" x="1034.6074" y="332.7231">update user requested shares</text><polygon fill="#181818" points="751.4004,375.9219,761.4004,379.9219,751.4004,383.9219,755.4004,379.9219" style="stroke:#181818;stroke-width:1;"/><line style="stroke:#181818;stroke-width:1;" x1="417.5742" x2="757.4004" y1="379.9219" y2="379.9219"/><text fill="#000000" font-family="sans-serif" font-size="13" lengthAdjust="spacing" textLength="321.8262" x="424.5742" y="374.856">undelegate(): batch undelegations from adapters</text><polygon fill="#181818" points="879.9253,405.0547,889.9253,409.0547,879.9253,413.0547,883.9253,409.0547" style="stroke:#181818;stroke-width:1;"/><line style="stroke:#181818;stroke-width:1;" x1="763.4004" x2="885.9253" y1="409.0547" y2="409.0547"/><text fill="#000000" font-family="sans-serif" font-size="13" lengthAdjust="spacing" textLength="69.9194" x="770.4004" y="403.9888">withdraw()</text><polygon fill="#181818" points="1015.6074,434.1875,1025.6074,438.1875,1015.6074,442.1875,1019.6074,438.1875" style="stroke:#181818;stroke-width:1;"/><line style="stroke:#181818;stroke-width:1;" x1="763.4004" x2="1021.6074" y1="438.1875" y2="438.1875"/><text fill="#000000" font-family="sans-serif" font-size="13" lengthAdjust="spacing" textLength="83.7954" x="770.4004" y="433.1216">undelegate()</text><line style="stroke:#181818;stroke-width:1;" x1="1027.6074" x2="1069.6074" y1="467.3203" y2="467.3203"/><line style="stroke:#181818;stroke-width:1;" x1="1069.6074" x2="1069.6074" y1="467.3203" y2="480.3203"/><line style="stroke:#181818;stroke-width:1;" x1="1028.6074" x2="1069.6074" y1="480.3203" y2="480.3203"/><polygon fill="#181818" points="1038.6074,476.3203,1028.6074,480.3203,1038.6074,484.3203,1034.6074,480.3203" style="stroke:#181818;stroke-width:1;"/><text fill="#000000" font-family="sans-serif" font-size="13" lengthAdjust="spacing" textLength="89.5273" x="1034.6074" y="462.2544">update epoch</text><polygon fill="#181818" points="751.4004,505.4531,761.4004,509.4531,751.4004,513.4531,755.4004,509.4531" style="stroke:#181818;stroke-width:1;"/><line style="stroke:#181818;stroke-width:1;" x1="417.5742" x2="757.4004" y1="509.4531" y2="509.4531"/><text fill="#000000" font-family="sans-serif" font-size="13" lengthAdjust="spacing" textLength="217.0771" x="424.5742" y="504.3872">claim(): claim asset from adapter</text><polygon fill="#181818" points="1015.6074,534.5859,1025.6074,538.5859,1015.6074,542.5859,1019.6074,538.5859" style="stroke:#181818;stroke-width:1;"/><line style="stroke:#181818;stroke-width:1;" x1="763.4004" x2="1021.6074" y1="538.5859" y2="538.5859"/><text fill="#000000" font-family="sans-serif" font-size="13" lengthAdjust="spacing" textLength="45.1445" x="770.4004" y="533.52">claim()</text><line style="stroke:#181818;stroke-width:1;" x1="1027.6074" x2="1069.6074" y1="567.7188" y2="567.7188"/><line style="stroke:#181818;stroke-width:1;" x1="1069.6074" x2="1069.6074" y1="567.7188" y2="580.7188"/><line style="stroke:#181818;stroke-width:1;" x1="1028.6074" x2="1069.6074" y1="580.7188" y2="580.7188"/><polygon fill="#181818" points="1038.6074,576.7188,1028.6074,580.7188,1038.6074,584.7188,1034.6074,580.7188" style="stroke:#181818;stroke-width:1;"/><text fill="#000000" font-family="sans-serif" font-size="13" lengthAdjust="spacing" textLength="166.5181" x="1034.6074" y="562.6528">update given epoch state</text><polygon fill="#181818" points="218.9209,605.8516,228.9209,609.8516,218.9209,613.8516,222.9209,609.8516" style="stroke:#181818;stroke-width:1;"/><line style="stroke:#181818;stroke-width:1;" x1="27.9551" x2="224.9209" y1="609.8516" y2="609.8516"/><text fill="#000000" font-family="sans-serif" font-size="13" lengthAdjust="spacing" textLength="60.3979" x="34.9551" y="604.7856">redeem()</text><polygon fill="#181818" points="1015.6074,634.9844,1025.6074,638.9844,1015.6074,642.9844,1019.6074,638.9844" style="stroke:#181818;stroke-width:1;"/><line style="stroke:#181818;stroke-width:1;" x1="230.9209" x2="1021.6074" y1="638.9844" y2="638.9844"/><text fill="#000000" font-family="sans-serif" font-size="13" lengthAdjust="spacing" textLength="108.7417" x="237.9209" y="633.9185">redeem(claimer)</text><line style="stroke:#181818;stroke-width:1;" x1="1027.6074" x2="1069.6074" y1="668.1172" y2="668.1172"/><line style="stroke:#181818;stroke-width:1;" x1="1069.6074" x2="1069.6074" y1="668.1172" y2="681.1172"/><line style="stroke:#181818;stroke-width:1;" x1="1028.6074" x2="1069.6074" y1="681.1172" y2="681.1172"/><polygon fill="#181818" points="1038.6074,677.1172,1028.6074,681.1172,1038.6074,685.1172,1034.6074,681.1172" style="stroke:#181818;stroke-width:1;"/><text fill="#000000" font-family="sans-serif" font-size="13" lengthAdjust="spacing" textLength="268.0806" x="1034.6074" y="663.0513">mark available withdrawals as redeemed</text><polygon fill="#181818" points="241.9209,706.25,231.9209,710.25,241.9209,714.25,237.9209,710.25" style="stroke:#181818;stroke-width:1;"/><line style="stroke:#181818;stroke-width:1;" x1="235.9209" x2="1026.6074" y1="710.25" y2="710.25"/><text fill="#000000" font-family="sans-serif" font-size="13" lengthAdjust="spacing" textLength="120.7959" x="247.9209" y="705.1841">redeemed amount</text><polygon fill="#181818" points="38.9551,735.3828,28.9551,739.3828,38.9551,743.3828,34.9551,739.3828" style="stroke:#181818;stroke-width:1;"/><line style="stroke:#181818;stroke-width:1;" x1="32.9551" x2="229.9209" y1="739.3828" y2="739.3828"/><text fill="#000000" font-family="sans-serif" font-size="13" lengthAdjust="spacing" textLength="96.8525" x="44.9551" y="734.3169">transfer assets</text><!--SRC=[bPDDSeCm38Ntd4BBiEW5M7IcNPLLfzE_PKTW9NXYR6h9uVgrWQH9IXEo0_lvwNiQIRGOWaTaWhLnVPQzCtcukuVIrjI9TlO3Wv6lrm8AKDGvrhBA2n2t_mDa9idEzSb3lxajsG9QRTEZMKsg5-qyMbx7ojoW9ywoyhaZZ-86bWU5dP1_GgjCKYioj46X1BB_vf634ncE-kpqtP2gJ56dysEZIy5xBOtosAz6kFnYrYfukvgNV4u-Q5u21Ih0qtSWbbJzx6vM7ZeLMI4aqEafgMKT2_QuPnLAtVoUHKg6jNVjld5ylNE7dkGpsh_aH-LlYHedh6wkHAiDwZQb6Zx6AJX9imHmChc5RQDtP4T2O8adbqR8ao9gby_5e1wWo2-ZQj5l0NUe3LPne_l3VLgCoP7KdDL_j76si7N1ofAz7PVl1m00]--></g></svg>