<svg xmlns="http://www.w3.org/2000/svg" xmlns:xlink="http://www.w3.org/1999/xlink" contentStyleType="text/css" data-diagram-type="SEQUENCE" height="955px" preserveAspectRatio="none" style="width:1166px;height:955px;background:#FFFFFF;" version="1.1" viewBox="0 0 1166 955" width="1166px" zoomAndPan="magnify"><title>Base flow</title><defs/><g><text fill="#000000" font-family="sans-serif" font-size="14" font-weight="bold" lengthAdjust="spacing" textLength="76.2617" x="541.0654" y="27.9951">Base flow</text><g><title>User</title><rect fill="transparent" height="847.0547" width="8" x="23.9551" y="73.5938"/><line style="stroke:#181818;stroke-width:0.5;stroke-dasharray:5.0,5.0;" x1="27" x2="27" y1="73.5938" y2="920.6484"/></g><g><title>InceptionVault_S</title><rect fill="transparent" height="847.0547" width="8" x="162.6001" y="73.5938"/><line style="stroke:#181818;stroke-width:0.5;stroke-dasharray:5.0,5.0;" x1="165.9443" x2="165.9443" y1="73.5938" y2="920.6484"/></g><g><title>IOperator</title><rect fill="transparent" height="847.0547" width="8" x="499.2578" y="73.5938"/><line style="stroke:#181818;stroke-width:0.5;stroke-dasharray:5.0,5.0;" x1="502.8608" x2="502.8608" y1="73.5938" y2="920.6484"/></g><g><title>AdapterHandler</title><rect fill="transparent" height="847.0547" width="8" x="751.2466" y="73.5938"/><line style="stroke:#181818;stroke-width:0.5;stroke-dasharray:5.0,5.0;" x1="754.79" x2="754.79" y1="73.5938" y2="920.6484"/></g><rect fill="#E2E2F0" height="30.2969" rx="2.5" ry="2.5" style="stroke:#181818;stroke-width:0.5;" width="45.9102" x="5" y="42.2969"/><text fill="#000000" font-family="sans-serif" font-size="14" lengthAdjust="spacing" textLength="31.9102" x="12" y="62.292">User</text><rect fill="#E2E2F0" height="30.2969" rx="2.5" ry="2.5" style="stroke:#181818;stroke-width:0.5;" width="45.9102" x="5" y="919.6484"/><text fill="#000000" font-family="sans-serif" font-size="14" lengthAdjust="spacing" textLength="31.9102" x="12" y="939.6436">User</text><rect fill="#E2E2F0" height="30.2969" rx="2.5" ry="2.5" style="stroke:#181818;stroke-width:0.5;" width="131.3115" x="100.9443" y="42.2969"/><text fill="#000000" font-family="sans-serif" font-size="14" lengthAdjust="spacing" textLength="117.3115" x="107.9443" y="62.292">InceptionVault_S</text><rect fill="#E2E2F0" height="30.2969" rx="2.5" ry="2.5" style="stroke:#181818;stroke-width:0.5;" width="131.3115" x="100.9443" y="919.6484"/><text fill="#000000" font-family="sans-serif" font-size="14" lengthAdjust="spacing" textLength="117.3115" x="107.9443" y="939.6436">InceptionVault_S</text><rect fill="#E2E2F0" height="30.2969" rx="2.5" ry="2.5" style="stroke:#181818;stroke-width:0.5;" width="80.7939" x="462.8608" y="42.2969"/><text fill="#000000" font-family="sans-serif" font-size="14" lengthAdjust="spacing" textLength="66.7939" x="469.8608" y="62.292">IOperator</text><rect fill="#E2E2F0" height="30.2969" rx="2.5" ry="2.5" style="stroke:#181818;stroke-width:0.5;" width="80.7939" x="462.8608" y="919.6484"/><text fill="#000000" font-family="sans-serif" font-size="14" lengthAdjust="spacing" textLength="66.7939" x="469.8608" y="939.6436">IOperator</text><rect fill="#E2E2F0" height="30.2969" rx="2.5" ry="2.5" style="stroke:#181818;stroke-width:0.5;" width="124.9131" x="692.79" y="42.2969"/><text fill="#000000" font-family="sans-serif" font-size="14" lengthAdjust="spacing" textLength="110.9131" x="699.79" y="62.292">AdapterHandler</text><rect fill="#E2E2F0" height="30.2969" rx="2.5" ry="2.5" style="stroke:#181818;stroke-width:0.5;" width="124.9131" x="692.79" y="919.6484"/><text fill="#000000" font-family="sans-serif" font-size="14" lengthAdjust="spacing" textLength="110.9131" x="699.79" y="939.6436">AdapterHandler</text><polygon fill="#181818" points="154.6001,100.7266,164.6001,104.7266,154.6001,108.7266,158.6001,104.7266" style="stroke:#181818;stroke-width:1;"/><line style="stroke:#181818;stroke-width:1;" x1="27.9551" x2="160.6001" y1="104.7266" y2="104.7266"/><text fill="#000000" font-family="sans-serif" font-size="13" lengthAdjust="spacing" textLength="111.5664" x="34.9551" y="99.6606">: deposit 10 ETH:</text><line style="stroke:#181818;stroke-width:1;" x1="166.6001" x2="208.6001" y1="133.8594" y2="133.8594"/><line style="stroke:#181818;stroke-width:1;" x1="208.6001" x2="208.6001" y1="133.8594" y2="146.8594"/><line style="stroke:#181818;stroke-width:1;" x1="167.6001" x2="208.6001" y1="146.8594" y2="146.8594"/><polygon fill="#181818" points="177.6001,142.8594,167.6001,146.8594,177.6001,150.8594,173.6001,146.8594" style="stroke:#181818;stroke-width:1;"/><text fill="#000000" font-family="sans-serif" font-size="13" lengthAdjust="spacing" textLength="206.9399" x="173.6001" y="128.7935">vaultBalance = 10, supply = 10</text><polygon fill="#181818" points="743.2466,171.9922,753.2466,175.9922,743.2466,179.9922,747.2466,175.9922" style="stroke:#181818;stroke-width:1;"/><line style="stroke:#181818;stroke-width:1;" x1="503.2578" x2="749.2466" y1="175.9922" y2="175.9922"/><text fill="#000000" font-family="sans-serif" font-size="13" lengthAdjust="spacing" textLength="107.9102" x="510.2578" y="170.9263">delegate 10 ETH</text><line style="stroke:#181818;stroke-width:1;" x1="755.2466" x2="797.2466" y1="205.125" y2="205.125"/><line style="stroke:#181818;stroke-width:1;" x1="797.2466" x2="797.2466" y1="205.125" y2="218.125"/><line style="stroke:#181818;stroke-width:1;" x1="756.2466" x2="797.2466" y1="218.125" y2="218.125"/><polygon fill="#181818" points="766.2466,214.125,756.2466,218.125,766.2466,222.125,762.2466,218.125" style="stroke:#181818;stroke-width:1;"/><text fill="#000000" font-family="sans-serif" font-size="13" lengthAdjust="spacing" textLength="252.7573" x="762.2466" y="200.0591">vaultBalance = 0, totalDelegated = 10</text><polygon fill="#181818" points="154.6001,243.2578,164.6001,247.2578,154.6001,251.2578,158.6001,247.2578" style="stroke:#181818;stroke-width:1;"/><line style="stroke:#181818;stroke-width:1;" x1="27.9551" x2="160.6001" y1="247.2578" y2="247.2578"/><text fill="#000000" font-family="sans-serif" font-size="13" lengthAdjust="spacing" textLength="102.2417" x="34.9551" y="242.1919">withdraw 5 ETH</text><line style="stroke:#181818;stroke-width:1;" x1="166.6001" x2="208.6001" y1="276.3906" y2="276.3906"/><line style="stroke:#181818;stroke-width:1;" x1="208.6001" x2="208.6001" y1="276.3906" y2="289.3906"/><line style="stroke:#181818;stroke-width:1;" x1="167.6001" x2="208.6001" y1="289.3906" y2="289.3906"/><polygon fill="#181818" points="177.6001,285.3906,167.6001,289.3906,177.6001,293.3906,173.6001,289.3906" style="stroke:#181818;stroke-width:1;"/><text fill="#000000" font-family="sans-serif" font-size="13" lengthAdjust="spacing" textLength="258.1338" x="173.6001" y="271.3247">supply = 5, totalSharesToWithdraw = 5</text><polygon fill="#181818" points="743.2466,314.5234,753.2466,318.5234,743.2466,322.5234,747.2466,318.5234" style="stroke:#181818;stroke-width:1;"/><line style="stroke:#181818;stroke-width:1;" x1="503.2578" x2="749.2466" y1="318.5234" y2="318.5234"/><text fill="#000000" font-family="sans-serif" font-size="13" lengthAdjust="spacing" textLength="116.1177" x="510.2578" y="313.4575">undelegate 5 ETH</text><line style="stroke:#181818;stroke-width:1;" x1="755.2466" x2="797.2466" y1="347.6563" y2="347.6563"/><line style="stroke:#181818;stroke-width:1;" x1="797.2466" x2="797.2466" y1="347.6563" y2="360.6563"/><line style="stroke:#181818;stroke-width:1;" x1="756.2466" x2="797.2466" y1="360.6563" y2="360.6563"/><polygon fill="#181818" points="766.2466,356.6563,756.2466,360.6563,766.2466,364.6563,762.2466,360.6563" style="stroke:#181818;stroke-width:1;"/><text fill="#000000" font-family="sans-serif" font-size="13" lengthAdjust="spacing" textLength="312.2222" x="762.2466" y="342.5903">totalDelegated = 5, totalSharesToWithdraw = 0</text><polygon fill="#181818" points="743.2466,385.7891,753.2466,389.7891,743.2466,393.7891,747.2466,389.7891" style="stroke:#181818;stroke-width:1;"/><line style="stroke:#181818;stroke-width:1;" x1="503.2578" x2="749.2466" y1="389.7891" y2="389.7891"/><text fill="#000000" font-family="sans-serif" font-size="13" lengthAdjust="spacing" textLength="77.4668" x="510.2578" y="384.7231">claim 5 ETH</text><line style="stroke:#181818;stroke-width:1;" x1="755.2466" x2="797.2466" y1="418.9219" y2="418.9219"/><line style="stroke:#181818;stroke-width:1;" x1="797.2466" x2="797.2466" y1="418.9219" y2="431.9219"/><line style="stroke:#181818;stroke-width:1;" x1="756.2466" x2="797.2466" y1="431.9219" y2="431.9219"/><polygon fill="#181818" points="766.2466,427.9219,756.2466,431.9219,766.2466,435.9219,762.2466,431.9219" style="stroke:#181818;stroke-width:1;"/><text fill="#000000" font-family="sans-serif" font-size="13" lengthAdjust="spacing" textLength="314.6343" x="762.2466" y="413.856">redeemReservedAmount = 5; vaultBalance = 5;</text><polygon fill="#181818" points="154.6001,457.0547,164.6001,461.0547,154.6001,465.0547,158.6001,461.0547" style="stroke:#181818;stroke-width:1;"/><line style="stroke:#181818;stroke-width:1;" x1="27.9551" x2="160.6001" y1="461.0547" y2="461.0547"/><text fill="#000000" font-family="sans-serif" font-size="13" lengthAdjust="spacing" textLength="92.7202" x="34.9551" y="455.9888">redeem 5 ETH</text><line style="stroke:#181818;stroke-width:1;" x1="166.6001" x2="208.6001" y1="490.1875" y2="490.1875"/><line style="stroke:#181818;stroke-width:1;" x1="208.6001" x2="208.6001" y1="490.1875" y2="503.1875"/><line style="stroke:#181818;stroke-width:1;" x1="167.6001" x2="208.6001" y1="503.1875" y2="503.1875"/><polygon fill="#181818" points="177.6001,499.1875,167.6001,503.1875,177.6001,507.1875,173.6001,503.1875" style="stroke:#181818;stroke-width:1;"/><text fill="#000000" font-family="sans-serif" font-size="13" lengthAdjust="spacing" textLength="314.6343" x="173.6001" y="485.1216">redeemReservedAmount = 0; vaultBalnace = 0;</text><rect fill="#EEEEEE" height="3" style="stroke:#EEEEEE;stroke-width:1;" width="1159.3926" x="0" y="531.7539"/><line style="stroke:#000000;stroke-width:1;" x1="0" x2="1159.3926" y1="531.7539" y2="531.7539"/><line style="stroke:#000000;stroke-width:1;" x1="0" x2="1159.3926" y1="534.7539" y2="534.7539"/><rect fill="#EEEEEE" height="23.1328" style="stroke:#000000;stroke-width:2;" width="138.541" x="510.4258" y="521.1875"/><text fill="#000000" font-family="sans-serif" font-size="13" font-weight="bold" lengthAdjust="spacing" textLength="120.0151" x="516.4258" y="537.2544">Emergency Flow</text><polygon fill="#181818" points="743.2466,571.4531,753.2466,575.4531,743.2466,579.4531,747.2466,575.4531" style="stroke:#181818;stroke-width:1;"/><line style="stroke:#181818;stroke-width:1;" x1="503.2578" x2="749.2466" y1="575.4531" y2="575.4531"/><text fill="#000000" font-family="sans-serif" font-size="13" lengthAdjust="spacing" textLength="190.728" x="510.2578" y="570.3872">emergencyUndelegate 2 ETH</text><line style="stroke:#181818;stroke-width:1;" x1="755.2466" x2="797.2466" y1="604.5859" y2="604.5859"/><line style="stroke:#181818;stroke-width:1;" x1="797.2466" x2="797.2466" y1="604.5859" y2="617.5859"/><line style="stroke:#181818;stroke-width:1;" x1="756.2466" x2="797.2466" y1="617.5859" y2="617.5859"/><polygon fill="#181818" points="766.2466,613.5859,756.2466,617.5859,766.2466,621.5859,762.2466,617.5859" style="stroke:#181818;stroke-width:1;"/><text fill="#000000" font-family="sans-serif" font-size="13" lengthAdjust="spacing" textLength="366.1455" x="762.2466" y="599.52">totalDelegated = 3, emergencyPendingWithdrawals = 2</text><polygon fill="#181818" points="743.2466,642.7188,753.2466,646.7188,743.2466,650.7188,747.2466,646.7188" style="stroke:#181818;stroke-width:1;"/><line style="stroke:#181818;stroke-width:1;" x1="503.2578" x2="749.2466" y1="646.7188" y2="646.7188"/><text fill="#000000" font-family="sans-serif" font-size="13" lengthAdjust="spacing" textLength="152.731" x="510.2578" y="641.6528">emergencyClaim 2 ETH</text><line style="stroke:#181818;stroke-width:1;" x1="755.2466" x2="797.2466" y1="675.8516" y2="675.8516"/><line style="stroke:#181818;stroke-width:1;" x1="797.2466" x2="797.2466" y1="675.8516" y2="688.8516"/><line style="stroke:#181818;stroke-width:1;" x1="756.2466" x2="797.2466" y1="688.8516" y2="688.8516"/><polygon fill="#181818" points="766.2466,684.8516,756.2466,688.8516,766.2466,692.8516,762.2466,688.8516" style="stroke:#181818;stroke-width:1;"/><text fill="#000000" font-family="sans-serif" font-size="13" lengthAdjust="spacing" textLength="353.939" x="762.2466" y="670.7856">emergencyPendingWithdrawals = 0; vaultBalance = 2</text><polygon fill="#181818" points="154.6001,713.9844,164.6001,717.9844,154.6001,721.9844,158.6001,717.9844" style="stroke:#181818;stroke-width:1;"/><line style="stroke:#181818;stroke-width:1;" x1="27.9551" x2="160.6001" y1="717.9844" y2="717.9844"/><text fill="#000000" font-family="sans-serif" font-size="13" lengthAdjust="spacing" textLength="114.645" x="34.9551" y="712.9185">withdraw 1.5 ETH</text><line style="stroke:#181818;stroke-width:1;" x1="166.6001" x2="208.6001" y1="747.1172" y2="747.1172"/><line style="stroke:#181818;stroke-width:1;" x1="208.6001" x2="208.6001" y1="747.1172" y2="760.1172"/><line style="stroke:#181818;stroke-width:1;" x1="167.6001" x2="208.6001" y1="760.1172" y2="760.1172"/><polygon fill="#181818" points="177.6001,756.1172,167.6001,760.1172,177.6001,764.1172,173.6001,760.1172" style="stroke:#181818;stroke-width:1;"/><text fill="#000000" font-family="sans-serif" font-size="13" lengthAdjust="spacing" textLength="282.9404" x="173.6001" y="742.0513">supply = 3.5, totalSharesToWithdraw = 1.5</text><polygon fill="#181818" points="743.2466,785.25,753.2466,789.25,743.2466,793.25,747.2466,789.25" style="stroke:#181818;stroke-width:1;"/><line style="stroke:#181818;stroke-width:1;" x1="503.2578" x2="749.2466" y1="789.25" y2="789.25"/><text fill="#000000" font-family="sans-serif" font-size="13" lengthAdjust="spacing" textLength="227.9888" x="510.2578" y="784.1841">force undelegateAndClaim 1.5 ETH</text><line style="stroke:#181818;stroke-width:1;" x1="755.2466" x2="797.2466" y1="818.3828" y2="818.3828"/><line style="stroke:#181818;stroke-width:1;" x1="797.2466" x2="797.2466" y1="818.3828" y2="831.3828"/><line style="stroke:#181818;stroke-width:1;" x1="756.2466" x2="797.2466" y1="831.3828" y2="831.3828"/><polygon fill="#181818" points="766.2466,827.3828,756.2466,831.3828,766.2466,835.3828,762.2466,831.3828" style="stroke:#181818;stroke-width:1;"/><text fill="#000000" font-family="sans-serif" font-size="13" lengthAdjust="spacing" textLength="390.146" x="762.2466" y="813.3169">redeemReservedAmount = 1.5, totalSharesToWithdraw = 0</text><polygon fill="#181818" points="154.6001,856.5156,164.6001,860.5156,154.6001,864.5156,158.6001,860.5156" style="stroke:#181818;stroke-width:1;"/><line style="stroke:#181818;stroke-width:1;" x1="27.9551" x2="160.6001" y1="860.5156" y2="860.5156"/><text fill="#000000" font-family="sans-serif" font-size="13" lengthAdjust="spacing" textLength="105.1235" x="34.9551" y="855.4497">redeem 1.5 ETH</text><line style="stroke:#181818;stroke-width:1;" x1="166.6001" x2="208.6001" y1="889.6484" y2="889.6484"/><line style="stroke:#181818;stroke-width:1;" x1="208.6001" x2="208.6001" y1="889.6484" y2="902.6484"/><line style="stroke:#181818;stroke-width:1;" x1="167.6001" x2="208.6001" y1="902.6484" y2="902.6484"/><polygon fill="#181818" points="177.6001,898.6484,167.6001,902.6484,177.6001,906.6484,173.6001,902.6484" style="stroke:#181818;stroke-width:1;"/><text fill="#000000" font-family="sans-serif" font-size="13" lengthAdjust="spacing" textLength="322.6577" x="173.6001" y="884.5825">redeemReservedAmount = 0; vaultBalnace = 0.5</text><!--SRC=[hPFBRi8m44Nt_ehv01hnK3QWL8AM2bQj2hJBQXGF4Ccn8ySXuk_hX8IeF18BTPV8zfovzywOo0Y26QO4Mw5onZOfQNXwXgKCAJ6Hab-O2VEp6iCOE2KgZGmC-Z1VByRiyixjTuVYOuO2xGa4zd4FqYn9nB7yOMpvdf16eqhib6DYI2zGSa6wG0hQeQ6AoVwUttfnWRCqemoArweGhwZtTUQHsNEDEVW54HnLdYNv5N2rHqtfMdtNvUmHwr2RoRDUtr7kbRWMVfVPeS0eTYPhuaJn9raZ3yIdiSgaAVYJomZyIPlTfp8LrSthE-H-GvPu2j-IWm3cCUaToV08RtR68GWwVA3w_gR9O_Xe7gDUK- -398_aheu4HMel35sxUIdZSMsa7Tg_Icdej1C3xx6j67ajSscBTdYmLTessQp7LFAJ6rK_Zu_hm6jVcEx9hLluxzdr_5y0]--></g></svg>